<?xml version="1.0" encoding="UTF-8"?>
<svg width="50px" height="47px" viewBox="0 0 50 47" version="1.1" xmlns="http://www.w3.org/2000/svg" xmlns:xlink="http://www.w3.org/1999/xlink">
    <!-- Generator: Sketch 53.2 (72643) - https://sketchapp.com -->
    <title>cinnamon</title>
    <desc>Created with Sketch.</desc>
    <g id="Page-1" stroke="none" stroke-width="1" fill="none" fill-rule="evenodd" opacity="0.82">
        <g id="Android-Copy" transform="translate(-11.000000, -1275.000000)" fill-rule="nonzero">
            <g id="cinnamon" transform="translate(33.763254, 1302.427187) rotate(-17.000000) translate(-33.763254, -1302.427187) translate(11.763254, 1279.427187)">
                <path d="M13.0243763,36.5117651 L3.77142857,36.5117651 C5.16791393,36.5117651 4.69146598,35.2367805 4.69146598,33.8521855 C4.6922875,33.2699059 4.48692201,32.7055551 4.11110312,32.2581491 L4.69146598,32.183174 L31.1232372,5.63505276 L35.5677573,5.63505276 L35.8285714,5.86853506 C35.8285714,5.86853506 11.6278909,36.5117651 13.0243763,36.5117651 L13.0243763,36.5117651 Z" id="Path" fill="#F3A630"></path>
                <path d="M31.558853,6.02182503 L5.65789256,33.3610802 L2.51428571,32.3293564 L29.7801794,1.85423084 L30.6609137,1.85423084 C31.4982257,1.90225591 32.2306689,2.42971705 32.5370825,3.20503606 C32.8434961,3.98076203 32.6677588,4.86230593 32.0872935,5.46343253 L31.558853,6.02182503 Z" id="Path" fill="#B77B46"></path>
                <path d="M42.1142857,3.73842751 L14.5176217,35.2514911 L11.3142857,31.6776507 L34.7410616,5.649141 L37.1506066,2.96743067 L38.5165401,1.45040023 C38.8471483,1.30266679 39.2059285,1.22532159 39.5688517,1.22409386 C40.9745577,1.22409386 42.1142857,2.3498966 42.1142857,3.73842751 L42.1142857,3.73842751 Z" id="Path" fill="#B77B46"></path>
                <path d="M12.5716517,31.4708347 C13.9599417,31.4708347 15.0855492,32.5992457 15.0855492,33.9909935 C15.0888225,34.2600729 15.0434054,34.5275116 14.9513437,34.7805939 C14.5822787,35.9073642 13.4783569,36.6227217 12.3020134,36.4976162 C11.1256697,36.3721004 10.1960514,35.440577 10.0712566,34.2613035 C9.9464619,33.08203 10.6600422,31.9753587 11.784013,31.6053745 C12.0360574,31.5130835 12.3032408,31.4675533 12.5716517,31.4708347 Z" id="Path" fill="#B77B46"></path>
                <path d="M3.77169887,31.4708345 C5.15882079,31.4737019 6.28283952,32.5989217 6.28570381,33.987526 C6.28938641,35.2749546 5.32167457,36.3579839 4.04298556,36.4968444 C2.76429655,36.6361143 1.5870843,35.7865671 1.31457004,34.5282214 C1.04205578,33.2698757 1.7626227,32.0086626 2.98402644,31.6051891 C3.23608163,31.5130252 3.50327646,31.4675576 3.77169887,31.4708345 Z" id="Path" fill="#B77B46"></path>
                <path d="M42.7428571,42.2047593 C42.7428571,43.5846967 41.6214563,44.703532 40.2383546,44.703532 L35.2293496,44.703532 C34.2530666,44.7067856 33.3648324,44.1398441 32.9584214,43.2540486 C32.8084122,42.9376349 7.54285714,12.0946294 7.54285714,12.0946294 L11.1186215,11.9364226 L42.7428571,42.2047593 Z" id="Path" fill="#F3A630"></path>
                <path d="M8.01002205,12.4210623 L34.5714286,39.6278755 C33.6369827,39.6278755 32.8725869,43.0086599 32.8725869,43.0086599 C32.8717574,43.3767824 32.9530496,43.7403653 33.1102423,44.0734089 L3.99227799,14.2719922 L3.77992278,14.0606932 C3.37180261,13.6550155 3.14285714,13.1048952 3.14285714,12.5308387 L3.14285714,11.7364039 C3.14576046,10.8041294 3.90434966,10.0489005 4.84169884,10.0460117 L5.69111969,10.0460117 L8.01002205,12.4210623 Z" id="Path" fill="#B77B46"></path>
                <path d="M35.9937293,42.348513 C35.7025355,42.6477328 35.3027674,42.8154191 34.8857349,42.8131114 L33.3142857,42.813135 L33.3142857,41.2377843 C33.3169713,40.3689699 34.0186755,39.6651495 34.8857349,39.6624572 C35.5214505,39.6605342 36.0953978,40.0439818 36.3382512,40.6328064 C36.5811045,41.2220157 36.4449071,41.8996832 35.9937293,42.348513 Z" id="Path" fill="#B77B46"></path>
                <path d="M12.5609449,10.0460117 L42.1142857,39.8233006 L41.5633189,40.2967925 C41.3628191,40.2134514 39.451551,41.8814993 39.760451,42.182998 L10.6081097,12.2884595 L10.0571429,11.7193705 C10.0640707,10.7981243 10.8073869,10.0529567 11.7263442,10.0460117 L12.5609449,10.0460117 Z" id="Path" fill="#B77B46"></path>
                <path d="M41.1714169,39.66245 C41.382039,39.6632192 41.5903591,39.7059104 41.7841007,39.7886005 C41.9713203,39.8647524 42.1401249,39.9805185 42.2793885,40.127053 C42.577482,40.4189683 42.7451357,40.8197267 42.7428337,41.2377925 L42.7428571,42.813135 L41.1714169,42.813135 C40.3036081,42.813135 39.6,42.1077693 39.6,41.2377925 C39.6,40.3678157 40.3036081,39.66245 41.1714169,39.66245 Z" id="Path" fill="#B77B46"></path>
                <path d="M44,42.6030893 L44,40.922724 C43.9983474,40.0710545 43.5632971,39.2776399 42.8439975,38.8140625 L26.9367739,22.8916167 L42.9481121,4.50400613 C43.0807342,4.35139483 43.1538623,4.15652822 43.1538623,3.95468747 C43.1567544,2.80476949 42.5659453,1.73320842 41.588425,1.1166095 C40.6109046,0.500010694 39.3830133,0.42411521 38.3360832,0.915589292 L38.2910495,0.876205731 L38.206353,0.97220311 C37.4808562,1.34962891 36.9189678,1.97689426 36.6260422,2.73625858 L34.7829659,4.79487011 L33.1167191,4.79487011 C33.4579836,4.02401892 33.4645941,3.14773467 33.1357241,2.37196063 C32.6986081,1.30737371 31.6615936,0.607084726 30.5039385,0.593956872 L29.6156591,0.593956872 C29.3739645,0.593956872 29.1438382,0.696928502 28.9835348,0.876205731 L17.6181041,13.5720712 L13.2936299,9.24767411 C13.1353922,9.08767833 12.9188999,8.99660379 12.6929051,8.99578336 L11.8467674,8.99578336 C10.4449387,8.99578336 9.3083543,10.1243686 9.3083543,11.5163313 C9.30794118,11.7362229 9.39470329,11.947089 9.54963576,12.1046232 L35.6047275,38.5769406 C35.4382269,38.514173 35.2651157,38.4686358 35.0891123,38.4415596 L6.53031236,9.24767411 C6.37083529,9.08603735 6.15186406,8.99496292 5.9238035,8.99578336 L5.0776658,8.99578336 C3.67583711,8.99578336 2.5392527,10.1243686 2.5392527,11.5163313 L2.5392527,12.3052333 C2.53677384,13.0990581 2.8544886,13.8612942 3.42174788,14.420869 L10.4193232,21.6137021 L1.9071284,31.1227811 L1.95629365,31.1658568 C0.517281124,31.8288134 -0.263165301,33.3967715 0.0805781397,34.9343714 C0.42432158,36.4719713 1.79888222,37.5652754 3.3853904,37.5619934 L12.6929051,37.5619934 C14.043916,37.5599422 15.2647836,36.7616045 15.799817,35.5296376 L15.8717057,35.5907641 L19.7156828,31.1765233 L33.0357411,44.8717465 L33.0431778,44.8639519 C33.6810863,45.5642408 34.5875444,45.9638199 35.538623,45.9638199 L40.6154492,45.9638199 C42.4845542,45.9638199 44,44.4590396 44,42.6030893 Z M41.4380372,3.66997708 L25.7361509,21.695341 L23.7224422,19.6785745 L39.2194047,2.36744791 C39.6883335,2.20540094 40.2056013,2.25668159 40.6328017,2.50734158 C41.0604152,2.75841178 41.3549934,3.18383627 41.4380372,3.66997708 L41.4380372,3.66997708 Z M22.5284296,18.4847602 L21.4282027,17.3865332 L31.773145,6.47523541 L33.2786752,6.47523541 L22.5284296,18.4847602 Z M29.9953469,2.27432217 L30.4894781,2.27432217 C30.9724541,2.28170653 31.4021334,2.57913455 31.5760709,3.02630202 C31.7962816,3.52269905 31.6962985,4.10155538 31.3223949,4.49662166 L20.2379084,16.192719 L18.8121168,14.7646547 L29.9953469,2.27432217 Z M11.8467674,10.6761487 L12.3408986,10.6761487 L40.3266552,38.6803225 C39.8337634,38.92688 39.4350706,39.3260488 39.1913102,39.8179331 L11.0531002,11.2262878 C11.1753935,10.8960402 11.492282,10.6765589 11.8467674,10.6761487 L11.8467674,10.6761487 Z M33.8463476,40.922724 C33.8463476,40.4587364 34.2252091,40.0825413 34.6924853,40.0825413 C35.1597616,40.0825413 35.538623,40.4587364 35.538623,40.922724 C35.538623,41.3867116 35.1597616,41.7629066 34.6924853,41.7629066 L33.8463476,41.7629066 L33.8463476,40.922724 Z M4.61823947,13.2327982 C4.37034757,12.9882919 4.2315281,12.6555828 4.2315281,12.3085153 L4.2315281,11.5163313 C4.2315281,11.0523437 4.61038964,10.6761487 5.0776658,10.6761487 L5.56601291,10.6761487 L33.1844763,38.9063677 C32.5383047,39.3777396 32.1557248,40.1264376 32.1540722,40.922724 L32.1540722,41.5376819 L4.8297739,13.4428439 L4.61823947,13.2327982 Z M11.2638084,31.1658568 C10.3994918,31.5568207 9.7438178,32.294442 9.46039467,33.1941102 C9.17697165,34.0941888 9.29265454,35.0713933 9.77893579,35.8816281 L6.29935982,35.8816281 C6.81704072,35.0361123 6.91330538,34.0006528 6.56005939,33.0755493 L13.9670695,25.2616045 L15.2660231,26.5969534 L11.2146431,31.1227811 L11.2638084,31.1658568 Z M12.7866909,24.0509702 L5.57675484,31.6614333 C5.20533021,31.3447238 4.76862723,31.1121147 4.29763261,30.9800157 L11.5980492,22.825157 L12.7866909,24.0509702 Z M1.693115,34.2012628 C1.693115,33.2732876 2.45083798,32.5208975 3.3853904,32.5208975 C4.31994294,32.5208975 5.0776658,33.2732876 5.0776658,34.2012628 C5.0776658,35.129238 4.31994294,35.8816281 3.3853904,35.8816281 C2.45083798,35.8816281 1.693115,35.129238 1.693115,34.2012628 Z M12.6929051,35.8816281 C11.7583527,35.8816281 11.0006297,35.129238 11.0006297,34.2012628 C11.0006297,33.2732876 11.7583527,32.5208975 12.6929051,32.5208975 C13.6274576,32.5208975 14.3851805,33.2732876 14.3851805,34.2012628 C14.3851805,35.129238 13.6274576,35.8816281 12.6929051,35.8816281 Z M15.8564189,33.0386273 C15.4792101,32.0351669 14.6429881,31.2708796 13.6051473,30.9800157 L16.444749,27.8084082 L18.5377831,29.9601456 L15.8564189,33.0386273 Z M40.6154492,44.2834546 L35.538623,44.2834546 C34.9341799,44.2830444 34.37601,43.9630529 34.073995,43.4432719 L34.6924853,43.4432719 C36.094314,43.4432719 37.2308984,42.3146867 37.2308984,40.922724 C37.2280063,40.630219 37.1738833,40.3405857 37.0701818,40.0665417 L39.6602391,42.697856 C40.1357784,43.1757919 40.7848421,43.4445027 41.4615869,43.4432719 L42.0800772,43.4432719 C41.7780623,43.9630529 41.2194792,44.2830444 40.6154492,44.2834546 Z M42.3077246,41.7629066 L41.4615869,41.7629066 C40.9943107,41.7629066 40.6154492,41.3867116 40.6154492,40.922724 C40.6154492,40.4587364 40.9943107,40.0825413 41.4615869,40.0825413 C41.9288632,40.0825413 42.3077246,40.4587364 42.3077246,40.922724 L42.3077246,41.7629066 Z" id="Shape" fill="#000000"></path>
            </g>
        </g>
    </g>
</svg>