<?xml version="1.0" encoding="UTF-8"?>
<svg width="45px" height="55px" viewBox="0 0 45 55" version="1.1" xmlns="http://www.w3.org/2000/svg" xmlns:xlink="http://www.w3.org/1999/xlink">
    <!-- Generator: Sketch 53.2 (72643) - https://sketchapp.com -->
    <title>gender</title>
    <desc>Created with Sketch.</desc>
    <g id="Page-1" stroke="none" stroke-width="1" fill="none" fill-rule="evenodd">
        <g id="Android-Copy" transform="translate(-12.000000, -2173.000000)" fill-rule="nonzero">
            <g id="gender" transform="translate(34.500000, 2200.500000) scale(-1, 1) translate(-34.500000, -2200.500000) translate(12.000000, 2173.000000)">
                <path d="M20.9768981,18.2796637 C21.0350082,18.3549687 21.1524918,18.3549687 21.2106019,18.2796637 C21.6747941,17.677332 23.5201936,15.5806608 26.7187787,15.5806608 C30.0487433,15.5806608 32.34375,18.5157199 32.34375,21.9340037 C32.34375,25.8466247 29.2843536,30.4681695 21.361964,34.5050759 C21.1953279,34.5899828 20.9920572,34.5899828 20.825536,34.5050759 C12.9031464,30.4681695 9.84375,25.8466247 9.84375,21.9340037 C9.84375,18.5158278 12.1387567,15.5806608 15.4687213,15.5806608 C18.6673064,15.5807687 20.5127059,17.6774399 20.9768981,18.2796637 Z" id="Path" fill="#FF7D7D"></path>
                <path d="M26.8556475,15.5806608 C26.1991593,15.5806608 25.6018324,15.6741992 25.0625462,15.8263204 C27.4422179,16.5974992 28.9837719,19.098652 28.9837719,21.933932 C28.9837719,25.5975711 26.3664467,29.8827493 19.6875,33.7275313 C20.1414057,33.9888345 20.6139114,34.2481957 21.1058014,34.5050756 C21.2683828,34.5899829 21.4667074,34.5899829 21.6291768,34.5050756 C29.3587959,30.4681462 32.34375,25.8465751 32.34375,21.933932 C32.34375,18.5157366 30.1045863,15.5806608 26.8556475,15.5806608 Z" id="Path" fill="#BF476C"></path>
                <path d="M44.0687334,1.17589893 L37.8041926,1.17589893 C37.6001199,1.17589893 37.4985969,1.40426197 37.6411854,1.53871871 C37.6423261,1.53978582 37.6423261,1.53978582 37.6423261,1.53978582 L39.4097392,3.19488427 C39.4987145,3.27918651 39.4964331,3.41471037 39.4063171,3.49581126 L33.5146738,8.89862457 C30.1486723,6.47626901 25.9353528,5.03459396 21.360657,5.03459396 C10.3401619,5.03459396 1.40625,13.3965227 1.40625,23.7091412 C1.40625,33.4689932 9.40512342,41.4777062 19.6012288,42.3111246 L19.6012288,47.9945896 C19.6012288,48.1119725 19.4985651,48.208013 19.3732013,48.208013 L16.2785742,48.208013 C16.0265918,48.208013 15.8225191,48.399027 15.8225191,48.6348598 L15.8225191,50.9825172 C15.8225191,51.2183501 16.0265918,51.409364 16.2785742,51.409364 L19.3732013,51.409364 C19.4986791,51.409364 19.6012288,51.5054045 19.6012288,51.6227874 L19.6012288,53.7847664 C19.6012288,54.0205993 19.8053015,54.2116132 20.0572839,54.2116132 L22.5658151,54.2116132 C22.8177975,54.2116132 23.0218702,54.0205993 23.0218702,53.7847664 L23.0218702,51.6227874 C23.0218702,51.5054045 23.124534,51.409364 23.2498978,51.409364 L26.3445248,51.409364 C26.5965072,51.409364 26.8005799,51.2183501 26.8005799,50.9825172 L26.8005799,48.6348598 C26.8005799,48.399027 26.5965072,48.208013 26.3445248,48.208013 L23.2498978,48.208013 C23.1244199,48.208013 23.0218702,48.1119725 23.0218702,47.9945896 L23.0218702,42.3185944 C33.2658853,41.5289278 41.3149499,33.4999396 41.3149499,23.7091412 C41.3149499,18.8249468 39.3103836,14.3782703 36.0287945,11.0509995 L41.8167474,5.74529387 C41.9057227,5.6652601 42.044775,5.66419298 42.1337502,5.74315964 L43.9068669,7.40359367 C43.9068669,7.40359367 43.9080076,7.40466079 43.9114297,7.40786214 C44.055159,7.53591618 44.296875,7.43987565 44.296875,7.25206306 L44.296875,1.38932233 C44.2967609,1.27193946 44.1940972,1.17589893 44.0687334,1.17589893 Z M37.8941944,23.7091412 C37.8941944,32.2418087 30.476854,39.1823376 21.3605429,39.1823376 C12.2442318,39.1823376 4.82689141,32.2418087 4.82689141,23.7091412 C4.82689141,15.1775409 12.2442318,8.23594492 21.3605429,8.23594492 C30.476854,8.23594492 37.8941944,15.1775409 37.8941944,23.7091412 Z" id="Shape" fill="#C07E4E"></path>
                <path d="M44.296875,1.39804927 L44.296875,7.50051905 C44.296875,7.69601135 44.0440428,7.795979 43.8937037,7.6626888 C43.8901242,7.65935654 43.888931,7.65824579 43.888931,7.65824579 L42.0343909,5.92991616 L39.185107,3.27744113 L37.3364134,1.55466526 C37.3364134,1.55466526 37.3364134,1.55466526 37.3352202,1.55355451 C37.1860743,1.41359979 37.2922662,1.17589893 37.5057238,1.17589893 L44.0583608,1.17589893 C44.1894899,1.17589893 44.296875,1.27586658 44.296875,1.39804927 Z" id="Path" fill="#C07E4E"></path>
                <path d="M10.8705506,17.0909585 C9.75493389,18.3967527 9.140625,20.1332422 9.140625,21.9807795 C9.140625,24.7238188 10.6064658,30.0710078 20.4236206,35.0634817 C20.633415,35.1701725 20.8636108,35.223518 21.0938067,35.223518 C21.3238892,35.223518 21.554085,35.1701725 21.7637661,35.0634817 C23.8664706,33.9941289 25.714271,32.8377444 27.2559369,31.6264204 C27.615795,31.3437534 27.6629449,30.8410099 27.3614575,30.5037222 C27.0598568,30.1664345 26.5238666,30.1221217 26.1640085,30.4047887 C24.7436176,31.5208985 23.038287,32.5922704 21.09392,33.5905313 C14.4804654,30.1956576 10.8408552,26.0763699 10.8408552,21.9807795 C10.8408552,18.8676165 12.8620675,16.519886 15.5423584,16.519886 C18.2790932,16.519886 19.8682491,18.3023886 20.2899914,18.8487012 C20.4762109,19.0899245 20.7766782,19.2339147 21.0936933,19.234021 C21.0936933,19.234021 21.0938067,19.234021 21.09392,19.234021 C21.4108218,19.234021 21.7112891,19.0900308 21.8978486,18.8487012 C22.3197043,18.3023886 23.9086335,16.519886 26.6454816,16.519886 C29.3257725,16.519886 31.3468715,18.8675102 31.3468715,21.9807795 C31.3468715,23.9994048 30.4073869,26.1206828 28.6300847,28.1151857 C28.329164,28.4530047 28.3772207,28.955642 28.7374188,29.2377777 C29.0976169,29.5200196 29.6338337,29.4749629 29.9347544,29.1371439 C31.970701,26.8523229 33.046875,24.3776048 33.046875,21.9807795 C33.046875,20.1332422 32.4325661,18.3967527 31.3169494,17.0910647 C30.1241474,15.6948383 28.46506,14.9258989 26.6453683,14.9258989 C23.8804116,14.9258989 22.0301177,16.3192562 21.0938067,17.2640655 C20.1573823,16.3191499 18.3069751,14.9258989 15.5423584,14.9258989 C13.7225533,14.9258989 12.0633526,15.694732 10.8705506,17.0909585 Z" id="Path" fill="#000000"></path>
                <path d="M18.3439993,43.5999851 C18.3439993,44.036386 18.7301839,44.3901846 19.2065319,44.3901846 C19.6828799,44.3901846 20.0690646,44.036386 20.0690646,43.5999851 L20.0690646,42.0442403 C20.0690646,41.6344956 19.7271566,41.2927079 19.2816298,41.2569909 C9.43679716,40.469004 1.72506529,32.7472797 1.72506529,23.6778965 C1.72506529,13.946853 10.3629272,6.03010747 20.980359,6.03010747 C25.2633511,6.03010747 29.3187496,7.29263557 32.7080429,9.68125065 C33.0488008,9.92157666 33.530784,9.89502596 33.8377307,9.61929901 L36.303769,7.4048439 C36.6439519,7.09940545 36.6493571,6.59905112 36.3159595,6.28739644 C35.9825618,5.97574175 35.4365212,5.97068447 35.0962233,6.27622828 L33.1560999,8.0183548 C29.5890099,5.68105001 25.3957212,4.44970845 20.980359,4.44970845 C9.41172621,4.44970845 0,13.0754209 0,23.6778965 C0,28.5185534 1.96933453,33.1437491 5.54516487,36.7013327 C8.91973759,40.058627 13.4394086,42.190796 18.3439993,42.7546824 L18.3439993,43.5999851 L18.3439993,43.5999851 Z" id="Path" fill="#000000"></path>
                <path d="M3.515625,23.7651846 C3.515625,32.6106122 11.40118,39.8068513 21.09375,39.8068513 C30.7864353,39.8068513 38.671875,32.6106122 38.671875,23.7651846 C38.671875,14.919757 30.78632,7.72351798 21.09375,7.72351798 C11.40118,7.72351798 3.515625,14.919757 3.515625,23.7651846 Z M36.9423479,23.7651846 C36.9423479,31.7405754 29.8327105,38.2289825 21.0938653,38.2289825 C12.3550201,38.2289825 5.2453827,31.7405754 5.2453827,23.7651846 C5.2453827,15.7897939 12.3550201,9.30138683 21.0938653,9.30138683 C29.8327105,9.30138683 36.9423479,15.7897939 36.9423479,23.7651846 Z" id="Shape" fill="#000000"></path>
                <path d="M43.914684,0.521137026 L37.6397544,0.521137026 C37.1992982,0.521137026 36.8056869,0.765372169 36.6371595,1.14345369 C36.4685179,1.52164135 36.5608366,1.95290054 36.872298,2.24235261 L38.192524,3.46936619 L37.80394,3.82314096 C37.4659713,4.13084964 37.460487,4.63492295 37.7918288,4.94889407 C38.1230565,5.26286519 38.6655431,5.26796006 39.0036261,4.96025138 L39.8456915,4.19347403 C40.0540941,4.00358413 40.1696067,3.74958383 40.171092,3.47838835 C40.1724631,3.20719288 40.0595784,2.95223729 39.8533466,2.76064909 L39.1563861,2.11328267 L43.2861627,2.11328267 L43.2861627,5.95120283 L42.5868028,5.30118283 C42.1680553,4.91238086 41.4830916,4.90909043 41.0598881,5.29417739 L35.262205,10.5715034 C34.9313201,10.8726312 34.9179522,11.3636489 35.2321557,11.6799552 C38.5001007,14.9702833 40.2998583,19.2499708 40.2998583,23.7307994 C40.2998583,32.9127034 32.5970738,40.694899 22.7636466,41.4476655 C22.3191915,41.4816312 21.9771096,41.8267023 21.9771096,42.2410847 L21.9771096,47.8865147 C21.9771096,48.442492 22.4639536,48.8948737 23.0624256,48.8948737 L25.7620621,48.8948737 L25.7620621,50.4870193 L23.0624256,50.4870193 C22.4639536,50.4870193 21.9771096,50.939401 21.9771096,51.4953782 L21.9771096,53.2742295 L20.2646433,53.2742295 L20.2646433,51.4952721 C20.2646433,50.9392948 19.7777993,50.4869132 19.1793273,50.4869132 L16.4794623,50.4869132 L16.4794623,48.8947675 L19.1790988,48.8947675 C19.7775708,48.8947675 20.2644148,48.4423859 20.2644148,47.8864086 L20.2644148,47.2416958 C20.2644148,46.8020513 19.8807438,46.4456229 19.4074962,46.4456229 C18.9342486,46.4456229 18.5505775,46.8020513 18.5505775,47.2416958 L18.5505775,47.3026219 L16.0794527,47.3026219 C15.3550708,47.3026219 14.765625,47.8502138 14.765625,48.5232669 L14.765625,50.8584138 C14.765625,51.5314668 15.3549565,52.0790588 16.0794527,52.0790588 L18.5505775,52.0790588 L18.5505775,53.6457301 C18.5505775,54.3187832 19.1399091,54.8663751 19.8644052,54.8663751 L22.3770049,54.8663751 C23.1013868,54.8663751 23.6908326,54.3187832 23.6908326,53.6457301 L23.6908326,52.0790588 L26.1619575,52.0790588 C26.8863394,52.0790588 27.4757851,51.5314668 27.4757851,50.8584138 L27.4757851,48.5232669 C27.4757851,47.8502138 26.8864536,47.3026219 26.1619575,47.3026219 L23.6908326,47.3026219 L23.6908326,42.96031 C28.5850949,42.4118689 33.0986568,40.2716005 36.4721741,36.8839392 C40.0456391,33.295349 42.0136956,28.624206 42.0136956,23.7307994 C42.0136956,19.1073146 40.254613,14.679876 37.0439103,11.1787477 L41.8148905,6.83590509 L43.1472276,8.07416983 C43.4588032,8.36351577 43.9231389,8.44927935 44.3300039,8.2928245 C44.7370974,8.13615737 45,7.77049459 45,7.36120701 L45,1.52949594 C45,0.973518676 44.513156,0.521137026 43.914684,0.521137026 Z" id="Path" fill="#000000"></path>
            </g>
        </g>
    </g>
</svg>