<?xml version="1.0" encoding="UTF-8"?>
<svg width="44px" height="46px" viewBox="0 0 44 46" version="1.1" xmlns="http://www.w3.org/2000/svg" xmlns:xlink="http://www.w3.org/1999/xlink">
    <!-- Generator: Sketch 53.2 (72643) - https://sketchapp.com -->
    <title>talk</title>
    <desc>Created with Sketch.</desc>
    <g id="Page-1" stroke="none" stroke-width="1" fill="none" fill-rule="evenodd" opacity="0.823311942">
        <g id="Android-Copy" transform="translate(-12.000000, -1724.000000)" fill-rule="nonzero">
            <g id="talk" transform="translate(12.000000, 1724.000000)">
                <path d="M21.5251813,28.8125 C17.726632,26.9375 13.1894758,22.625 12.6618995,19.0625 C12.3453537,17.65625 12.87293,16.25 14.0335979,15.3125 C14.8777199,14.46875 16.1439031,14 17.3045709,14 C19.8369372,14 21.8417271,16.25 21.9472424,16.4375 C22.1582729,16.15625 24.0575476,14 26.6954291,14 C27.9616122,14 29.1222801,14.46875 29.9664021,15.3125 C31.12707,16.25 31.6546463,17.65625 31.3381005,19.0625 C30.8105242,22.625 26.273368,26.9375 22.4748187,28.8125 L22.0527576,29 L21.5251813,28.8125 Z" id="Path" fill="#FF6161"></path>
                <path d="M26.2058824,37.8914759 C14.8226415,39.9363938 3.76776332,33.412132 1.46922429,23.3822967 C-0.82931473,13.3524614 6.5041193,3.42000314 17.7779059,1.37508526 C29.0516926,-0.66983262 40.216025,5.85442918 42.514564,15.8842645 C42.8429267,17.150166 42.952381,18.3186905 42.952381,19.5845921 C42.952381,25.2324605 40.1065707,30.6855749 35.0716757,34.1911484 L35.0716757,45 L26.2058824,37.8914759 Z M17.1211805,13.0603303 C15.8077296,13.0603303 14.603733,13.5472155 13.7280991,14.4236089 C12.5241025,15.3973793 11.9768313,16.8580349 12.305194,18.3186905 C12.9619194,22.5059033 18.5440856,27.0826243 22.0466213,28.738034 C25.6586112,27.0826243 31.1313231,22.5059033 31.7880486,18.3186905 C32.1164113,16.8580349 31.5691401,15.3973793 30.3651434,14.4236089 C29.4895095,13.5472155 28.1760587,13.0603303 26.972062,13.0603303 C25.4397027,13.1577073 23.9073433,13.8393466 22.8128009,14.813117 L22.0466213,15.4947563 L21.2804416,14.813117 C20.1858992,13.8393466 18.7629941,13.1577073 17.1211805,13.0603303 Z" id="Shape" fill="#FFFFFF"></path>
                <g id="Group" fill="#28150B">
                    <path d="M21.9378025,0 C9.87854321,0 0.100765432,8.83588391 0.100765432,19.6137203 C0.100765432,30.3915567 9.98718519,39.130343 22.0464444,39.130343 C23.2415062,39.130343 24.5452099,39.0332454 25.7402716,38.8390501 L34.2143457,45.6358839 C34.6489136,46.0242744 35.3007654,45.9271768 35.7353333,45.5387863 C35.9526173,45.344591 36.0612593,45.1503958 36.0612593,44.8591029 L36.0612593,34.5667546 C45.2958272,27.6728232 46.5995309,15.3414248 38.7773086,6.99102902 C34.5402716,2.52453826 28.456321,0 21.9378025,0 Z M34.2143457,33.3044855 C33.9970617,33.4986807 33.7797778,33.7899736 33.7797778,34.0812665 L33.7797778,42.7229551 L26.8266914,37.0912929 C26.6094074,36.8970976 26.3921235,36.8 26.0661975,36.8 L25.8489136,36.8 C15.202,38.7419525 4.77237037,32.6248021 2.59953086,23.0121372 C0.426691358,13.3994723 7.2711358,4.17519789 18.0266914,2.23324538 C28.7822469,0.291292876 39.1032346,6.40844327 41.2760741,16.0211082 C41.493358,17.1862797 41.710642,18.3514512 41.710642,19.6137203 C41.710642,24.8569921 38.8859506,30.0031662 34.2143457,33.3044855 Z" id="Shape"></path>
                    <path d="M26.8266914,12.0401055 C24.9797778,12.1372032 23.2415062,12.9139842 21.9378025,14.0791557 C20.6340988,12.8168865 18.8958272,12.1372032 17.0489136,12.0401055 C15.5279259,12.0401055 14.0069383,12.6226913 12.9205185,13.6907652 C11.5081728,14.8559367 10.856321,16.6036939 11.1822469,18.3514512 C11.9427407,22.9150396 17.5921235,27.6728232 21.5032346,29.4205805 C21.8291605,29.5176781 22.1550864,29.5176781 22.4810123,29.4205805 C26.2834815,27.6728232 32.0415062,22.9150396 32.802,18.3514512 C33.1279259,16.6036939 32.4760741,14.8559367 31.0637284,13.6907652 C29.8686667,12.7197889 28.347679,12.1372032 26.8266914,12.0401055 Z M30.5205185,18.0601583 C29.9773086,21.3614776 25.6316296,25.5366755 21.9378025,27.478628 C18.1353333,25.6337731 13.7896543,21.3614776 13.3550864,18.0601583 C13.1378025,16.9920844 13.4637284,15.8269129 14.4415062,15.0501319 C15.093358,14.3704485 16.0711358,13.982058 17.1575556,13.982058 C19.3303951,13.982058 21.0686667,16.1182058 21.0686667,16.1182058 C21.3945926,16.6036939 22.0464444,16.7007916 22.5896543,16.3124011 C22.6982963,16.2153034 22.8069383,16.2153034 22.8069383,16.1182058 C22.8069383,16.1182058 24.5452099,13.982058 26.8266914,13.982058 C27.8044691,13.982058 28.7822469,14.4675462 29.5427407,15.0501319 C30.4118765,15.8269129 30.8464444,16.9920844 30.5205185,18.0601583 Z" id="Shape"></path>
                </g>
            </g>
        </g>
    </g>
</svg>